<?xml version="1.0" encoding="UTF-8" standalone="no"?>
<svg width="367px" height="97px" viewBox="0 0 367 97" version="1.1" xmlns="http://www.w3.org/2000/svg" xmlns:xlink="http://www.w3.org/1999/xlink" xmlns:sketch="http://www.bohemiancoding.com/sketch/ns">
    <!-- Generator: Sketch 3.3.2 (12043) - http://www.bohemiancoding.com/sketch -->
    <title>logo</title>
    <desc>Created with Sketch.</desc>
    <defs>
        <linearGradient x1="29.7528192%" y1="103.030737%" x2="84.6048637%" y2="9.39964169%" id="linearGradient-1">
            <stop stop-color="#00718A" offset="0%"></stop>
            <stop stop-color="#00738E" stop-opacity="0.9813" offset="1.87065%"></stop>
            <stop stop-color="#0084A7" stop-opacity="0.8437" offset="15.63%"></stop>
            <stop stop-color="#0093BE" stop-opacity="0.6996" offset="30.04%"></stop>
            <stop stop-color="#009ED1" stop-opacity="0.5494" offset="45.06%"></stop>
            <stop stop-color="#00A6E0" stop-opacity="0.3903" offset="60.97%"></stop>
            <stop stop-color="#00ABEA" stop-opacity="0.2164" offset="78.36%"></stop>
            <stop stop-color="#00AEEF" stop-opacity="0" offset="100%"></stop>
        </linearGradient>
        <linearGradient x1="38.1115858%" y1="121.912934%" x2="83.893736%" y2="0.770186535%" id="linearGradient-2">
            <stop stop-color="#00718A" offset="0%"></stop>
            <stop stop-color="#00738E" stop-opacity="0.9813" offset="1.87065%"></stop>
            <stop stop-color="#0084A7" stop-opacity="0.8437" offset="15.63%"></stop>
            <stop stop-color="#0093BE" stop-opacity="0.6996" offset="30.04%"></stop>
            <stop stop-color="#009ED1" stop-opacity="0.5494" offset="45.06%"></stop>
            <stop stop-color="#00A6E0" stop-opacity="0.3903" offset="60.97%"></stop>
            <stop stop-color="#00ABEA" stop-opacity="0.2164" offset="78.36%"></stop>
            <stop stop-color="#00AEEF" stop-opacity="0" offset="100%"></stop>
        </linearGradient>
        <linearGradient x1="24.2088857%" y1="109.469525%" x2="58.5729491%" y2="-33.4162%" id="linearGradient-3">
            <stop stop-color="#00718A" offset="0%"></stop>
            <stop stop-color="#00738E" stop-opacity="0.9813" offset="1.87065%"></stop>
            <stop stop-color="#0084A7" stop-opacity="0.8437" offset="15.63%"></stop>
            <stop stop-color="#0093BE" stop-opacity="0.6996" offset="30.04%"></stop>
            <stop stop-color="#009ED1" stop-opacity="0.5494" offset="45.06%"></stop>
            <stop stop-color="#00A6E0" stop-opacity="0.3903" offset="60.97%"></stop>
            <stop stop-color="#00ABEA" stop-opacity="0.2164" offset="78.36%"></stop>
            <stop stop-color="#00AEEF" stop-opacity="0" offset="100%"></stop>
        </linearGradient>
        <linearGradient x1="22.5610292%" y1="96.6093957%" x2="71.3706203%" y2="-4.46020572%" id="linearGradient-4">
            <stop stop-color="#00718A" offset="0%"></stop>
            <stop stop-color="#00738E" stop-opacity="0.9813" offset="1.87065%"></stop>
            <stop stop-color="#0084A7" stop-opacity="0.8437" offset="15.63%"></stop>
            <stop stop-color="#0093BE" stop-opacity="0.6996" offset="30.04%"></stop>
            <stop stop-color="#009ED1" stop-opacity="0.5494" offset="45.06%"></stop>
            <stop stop-color="#00A6E0" stop-opacity="0.3903" offset="60.97%"></stop>
            <stop stop-color="#00ABEA" stop-opacity="0.2164" offset="78.36%"></stop>
            <stop stop-color="#00AEEF" stop-opacity="0" offset="100%"></stop>
        </linearGradient>
        <linearGradient x1="17.6698357%" y1="94.9176755%" x2="74.1706931%" y2="1.59541006%" id="linearGradient-5">
            <stop stop-color="#00718A" offset="0%"></stop>
            <stop stop-color="#00738E" stop-opacity="0.9813" offset="1.87065%"></stop>
            <stop stop-color="#0084A7" stop-opacity="0.8437" offset="15.63%"></stop>
            <stop stop-color="#0093BE" stop-opacity="0.6996" offset="30.04%"></stop>
            <stop stop-color="#009ED1" stop-opacity="0.5494" offset="45.06%"></stop>
            <stop stop-color="#00A6E0" stop-opacity="0.3903" offset="60.97%"></stop>
            <stop stop-color="#00ABEA" stop-opacity="0.2164" offset="78.36%"></stop>
            <stop stop-color="#00AEEF" stop-opacity="0" offset="100%"></stop>
        </linearGradient>
        <linearGradient x1="40.567378%" y1="144.018231%" x2="73.1215498%" y2="-17.2701044%" id="linearGradient-6">
            <stop stop-color="#00718A" offset="0%"></stop>
            <stop stop-color="#00738E" stop-opacity="0.9813" offset="1.87065%"></stop>
            <stop stop-color="#0084A7" stop-opacity="0.8437" offset="15.63%"></stop>
            <stop stop-color="#0093BE" stop-opacity="0.6996" offset="30.04%"></stop>
            <stop stop-color="#009ED1" stop-opacity="0.5494" offset="45.06%"></stop>
            <stop stop-color="#00A6E0" stop-opacity="0.3903" offset="60.97%"></stop>
            <stop stop-color="#00ABEA" stop-opacity="0.2164" offset="78.36%"></stop>
            <stop stop-color="#00AEEF" stop-opacity="0" offset="100%"></stop>
        </linearGradient>
        <linearGradient x1="25.6973292%" y1="114.518763%" x2="63.9614651%" y2="-29.9050218%" id="linearGradient-7">
            <stop stop-color="#00718A" offset="0%"></stop>
            <stop stop-color="#00738E" stop-opacity="0.9813" offset="1.87065%"></stop>
            <stop stop-color="#0084A7" stop-opacity="0.8437" offset="15.63%"></stop>
            <stop stop-color="#0093BE" stop-opacity="0.6996" offset="30.04%"></stop>
            <stop stop-color="#009ED1" stop-opacity="0.5494" offset="45.06%"></stop>
            <stop stop-color="#00A6E0" stop-opacity="0.3903" offset="60.97%"></stop>
            <stop stop-color="#00ABEA" stop-opacity="0.2164" offset="78.36%"></stop>
            <stop stop-color="#00AEEF" stop-opacity="0" offset="100%"></stop>
        </linearGradient>
    </defs>
    <g id="Page-1" stroke="none" stroke-width="1" fill="none" fill-rule="evenodd" sketch:type="MSPage">
        <g id="logo" sketch:type="MSLayerGroup">
            <g id="Group" sketch:type="MSShapeGroup">
                <path d="M86.4,63.4 L125.1,59 L105,1.4 L75.6,28.7 L86.4,63.4 Z" id="Shape" fill="url(#linearGradient-1)"></path>
                <path d="M41.6,0 L0.4,40.4 L50.4,32.6 L41.6,0 Z" id="Shape" fill="url(#linearGradient-2)"></path>
                <path d="M75.6,28.7 L105,1.4 L41.6,0 L50.4,32.6 L75.6,28.7 Z" id="Shape" fill="url(#linearGradient-3)"></path>
                <path d="M75.6,28.7 L105,1.4 L41.6,0 L50.4,32.6 L75.6,28.7 Z" id="Shape" fill="url(#linearGradient-3)"></path>
                <path d="M50.4,32.6 L0.4,40.4 L18.9,96.1 L61.9,75.3 L50.4,32.6 Z" id="Shape" fill="url(#linearGradient-4)"></path>
                <path d="M50.4,32.6 L61.9,75.3 L86.4,63.4 L75.6,28.7 L50.4,32.6 Z" id="Shape" fill="url(#linearGradient-5)"></path>
                <path d="M18.9,96.1 L67.1,94.8 L61.9,75.3 L18.9,96.1 Z" id="Shape" fill="url(#linearGradient-6)"></path>
                <path d="M41.6,0 L0.4,40.4 L50.4,32.6 L41.6,0 Z" id="Shape" fill="url(#linearGradient-2)"></path>
                <path d="M50.4,32.6 L0.4,40.4 L18.9,96.1 L61.9,75.3 L50.4,32.6 Z" id="Shape" fill="url(#linearGradient-4)"></path>
                <path d="M18.9,96.1 L67.1,94.8 L61.9,75.3 L18.9,96.1 Z" id="Shape" fill="url(#linearGradient-6)"></path>
                <path d="M86.4,63.4 L61.9,75.3 L67.1,94.8 L125.1,59 L86.4,63.4 Z" id="Shape" fill="url(#linearGradient-7)"></path>
                <path d="M86.4,63.4 L61.9,75.3 L67.1,94.8 L125.1,59 L86.4,63.4 Z" id="Shape" fill="url(#linearGradient-7)"></path>
            </g>
            <g id="Group" transform="translate(139.000000, 39.000000)" fill="#000000" sketch:type="MSShapeGroup">
                <path d="M0.7,1.1 C2.8,0.8 5.5,0.5 8.9,0.5 C13.1,0.5 16.2,1.5 18.2,3.2 C20,4.8 21.1,7.2 21.1,10.1 C21.1,13.1 20.2,15.4 18.6,17.2 C16.3,19.6 12.7,20.8 8.5,20.8 C7.2,20.8 6,20.8 5.1,20.5 L5.1,33.7 L0.8,33.7 L0.8,1.1 L0.7,1.1 Z M4.9,17.1 C5.8,17.3 7,17.4 8.4,17.4 C13.5,17.4 16.7,14.9 16.7,10.4 C16.7,6 13.6,3.9 8.9,3.9 C7,3.9 5.6,4 4.9,4.2 L4.9,17.1 L4.9,17.1 Z" id="Shape"></path>
                <path d="M26.7,1.2 C28.9,0.8 32,0.5 34.9,0.5 C39.5,0.5 42.4,1.4 44.5,3.2 C46.1,4.7 47.1,6.9 47.1,9.5 C47.1,13.8 44.4,16.7 40.9,17.9 L40.9,18 C43.4,18.9 44.9,21.2 45.7,24.7 C46.8,29.3 47.6,32.5 48.2,33.8 L43.8,33.8 C43.3,32.8 42.5,30 41.6,25.9 C40.6,21.3 38.8,19.6 34.9,19.5 L30.9,19.5 L30.9,33.8 L26.6,33.8 L26.6,1.2 L26.7,1.2 Z M31,16.2 L35.4,16.2 C40,16.2 42.9,13.7 42.9,9.9 C42.9,5.6 39.8,3.8 35.3,3.8 C33.2,3.8 31.8,3.9 31.1,4.1 L31.1,16.2 L31,16.2 Z" id="Shape"></path>
                <path d="M81.5,16.9 C81.5,28.2 74.6,34.3 66.2,34.3 C57.4,34.3 51.3,27.5 51.3,17.5 C51.3,7 57.8,0.1 66.6,0.1 C75.7,0.2 81.5,7.1 81.5,16.9 L81.5,16.9 Z M55.8,17.4 C55.8,24.5 59.6,30.8 66.4,30.8 C73.2,30.8 77,24.6 77,17.1 C77,10.5 73.6,3.6 66.5,3.6 C59.4,3.6 55.8,10.2 55.8,17.4 L55.8,17.4 Z" id="Shape"></path>
                <path d="M84.2,31.3 L102.5,4.5 L102.5,4.4 L85.8,4.4 L85.8,0.8 L108.1,0.8 L108.1,3.4 L89.9,30.1 L89.9,30.2 L108.4,30.2 L108.4,33.8 L84.3,33.8 L84.3,31.3 L84.2,31.3 Z" id="Shape"></path>
                <path d="M140.8,16.9 C140.8,28.2 133.9,34.3 125.5,34.3 C116.7,34.3 110.6,27.5 110.6,17.5 C110.6,7 117.1,0.1 125.9,0.1 C135,0.2 140.8,7.1 140.8,16.9 L140.8,16.9 Z M115.1,17.4 C115.1,24.5 118.9,30.8 125.7,30.8 C132.5,30.8 136.3,24.6 136.3,17.1 C136.3,10.5 132.9,3.6 125.8,3.6 C118.6,3.6 115.1,10.2 115.1,17.4 L115.1,17.4 Z" id="Shape"></path>
                <path d="M146.3,1.2 C148.5,0.8 151.6,0.5 154.5,0.5 C159.1,0.5 162.1,1.4 164.1,3.2 C165.7,4.7 166.7,6.9 166.7,9.5 C166.7,13.8 164,16.7 160.5,17.9 L160.5,18 C163,18.9 164.5,21.2 165.3,24.7 C166.4,29.3 167.2,32.5 167.8,33.8 L163.4,33.8 C162.9,32.8 162.1,30 161.2,25.9 C160.2,21.3 158.4,19.6 154.5,19.5 L150.5,19.5 L150.5,33.8 L146.2,33.8 L146.2,1.2 L146.3,1.2 Z M150.6,16.2 L155,16.2 C159.6,16.2 162.5,13.7 162.5,9.9 C162.5,5.6 159.4,3.8 154.9,3.8 C152.8,3.8 151.4,3.9 150.7,4.1 L150.7,16.2 L150.6,16.2 Z" id="Shape"></path>
                <path d="M173,1.2 C175.2,0.8 178.3,0.5 181.2,0.5 C185.8,0.5 188.8,1.4 190.8,3.2 C192.4,4.7 193.4,6.9 193.4,9.5 C193.4,13.8 190.7,16.7 187.2,17.9 L187.2,18 C189.7,18.9 191.2,21.2 192,24.7 C193.1,29.3 193.9,32.5 194.5,33.8 L190.1,33.8 C189.6,32.8 188.8,30 187.9,25.9 C186.9,21.3 185.1,19.6 181.2,19.5 L177.2,19.5 L177.2,33.8 L173,33.8 L173,1.2 L173,1.2 Z M177.3,16.2 L181.7,16.2 C186.3,16.2 189.2,13.7 189.2,9.9 C189.2,5.6 186.1,3.8 181.6,3.8 C179.5,3.8 178.1,3.9 177.4,4.1 L177.4,16.2 L177.3,16.2 Z" id="Shape"></path>
                <path d="M227.8,16.9 C227.8,28.2 220.9,34.3 212.5,34.3 C203.7,34.3 197.6,27.5 197.6,17.5 C197.6,7 204.1,0.1 212.9,0.1 C221.9,0.2 227.8,7.1 227.8,16.9 L227.8,16.9 Z M202.1,17.4 C202.1,24.5 205.9,30.8 212.7,30.8 C219.5,30.8 223.3,24.6 223.3,17.1 C223.3,10.5 219.9,3.6 212.8,3.6 C205.6,3.6 202.1,10.2 202.1,17.4 L202.1,17.4 Z" id="Shape"></path>
            </g>
        </g>
    </g>
</svg>